<mxfile host="app.diagrams.net" modified="2024-02-13T10:56:49.329Z" agent="Mozilla/5.0 (Windows NT 10.0; Win64; x64) AppleWebKit/537.36 (KHTML, like Gecko) Chrome/121.0.0.0 Safari/537.36" etag="_V2Wdl7kboQRwpSrepeA" version="23.1.1" type="device">
  <diagram name="Страница — 1" id="aPDG-QjCzAcFDN6kZbVs">
    <mxGraphModel dx="1221" dy="653" grid="1" gridSize="10" guides="1" tooltips="1" connect="1" arrows="1" fold="1" page="1" pageScale="1" pageWidth="1169" pageHeight="827" math="0" shadow="0">
      <root>
        <mxCell id="0" />
        <mxCell id="1" parent="0" />
        <mxCell id="geH2b-r0h5VM1KoDnd65-3" value="" style="edgeStyle=orthogonalEdgeStyle;rounded=0;orthogonalLoop=1;jettySize=auto;html=1;" parent="1" source="geH2b-r0h5VM1KoDnd65-1" target="geH2b-r0h5VM1KoDnd65-2" edge="1">
          <mxGeometry relative="1" as="geometry">
            <Array as="points">
              <mxPoint x="780" y="120" />
              <mxPoint x="340" y="120" />
            </Array>
          </mxGeometry>
        </mxCell>
        <mxCell id="geH2b-r0h5VM1KoDnd65-5" value="" style="edgeStyle=orthogonalEdgeStyle;rounded=0;orthogonalLoop=1;jettySize=auto;html=1;" parent="1" source="geH2b-r0h5VM1KoDnd65-1" target="geH2b-r0h5VM1KoDnd65-4" edge="1">
          <mxGeometry relative="1" as="geometry">
            <Array as="points">
              <mxPoint x="780" y="120" />
              <mxPoint x="640" y="120" />
            </Array>
          </mxGeometry>
        </mxCell>
        <mxCell id="geH2b-r0h5VM1KoDnd65-7" value="" style="edgeStyle=orthogonalEdgeStyle;rounded=0;orthogonalLoop=1;jettySize=auto;html=1;" parent="1" source="geH2b-r0h5VM1KoDnd65-1" target="geH2b-r0h5VM1KoDnd65-6" edge="1">
          <mxGeometry relative="1" as="geometry">
            <Array as="points">
              <mxPoint x="780" y="120" />
              <mxPoint x="949" y="120" />
            </Array>
          </mxGeometry>
        </mxCell>
        <mxCell id="geH2b-r0h5VM1KoDnd65-9" value="" style="edgeStyle=orthogonalEdgeStyle;rounded=0;orthogonalLoop=1;jettySize=auto;html=1;" parent="1" source="geH2b-r0h5VM1KoDnd65-1" target="geH2b-r0h5VM1KoDnd65-8" edge="1">
          <mxGeometry relative="1" as="geometry">
            <Array as="points">
              <mxPoint x="780" y="120" />
              <mxPoint x="1220" y="120" />
            </Array>
          </mxGeometry>
        </mxCell>
        <mxCell id="geH2b-r0h5VM1KoDnd65-1" value="Информационная система" style="rounded=0;whiteSpace=wrap;html=1;" parent="1" vertex="1">
          <mxGeometry x="720" y="40" width="120" height="60" as="geometry" />
        </mxCell>
        <mxCell id="geH2b-r0h5VM1KoDnd65-10" style="edgeStyle=orthogonalEdgeStyle;rounded=0;orthogonalLoop=1;jettySize=auto;html=1;entryX=1;entryY=0.5;entryDx=0;entryDy=0;" parent="1" source="geH2b-r0h5VM1KoDnd65-2" target="geH2b-r0h5VM1KoDnd65-12" edge="1">
          <mxGeometry relative="1" as="geometry">
            <mxPoint x="340" y="560" as="targetPoint" />
          </mxGeometry>
        </mxCell>
        <mxCell id="geH2b-r0h5VM1KoDnd65-20" style="edgeStyle=orthogonalEdgeStyle;rounded=0;orthogonalLoop=1;jettySize=auto;html=1;entryX=1;entryY=0.5;entryDx=0;entryDy=0;" parent="1" source="geH2b-r0h5VM1KoDnd65-2" target="geH2b-r0h5VM1KoDnd65-13" edge="1">
          <mxGeometry relative="1" as="geometry" />
        </mxCell>
        <mxCell id="geH2b-r0h5VM1KoDnd65-21" style="edgeStyle=orthogonalEdgeStyle;rounded=0;orthogonalLoop=1;jettySize=auto;html=1;entryX=1;entryY=0.5;entryDx=0;entryDy=0;" parent="1" source="geH2b-r0h5VM1KoDnd65-2" target="geH2b-r0h5VM1KoDnd65-14" edge="1">
          <mxGeometry relative="1" as="geometry" />
        </mxCell>
        <mxCell id="geH2b-r0h5VM1KoDnd65-22" style="edgeStyle=orthogonalEdgeStyle;rounded=0;orthogonalLoop=1;jettySize=auto;html=1;entryX=1;entryY=0.5;entryDx=0;entryDy=0;" parent="1" source="geH2b-r0h5VM1KoDnd65-2" target="geH2b-r0h5VM1KoDnd65-15" edge="1">
          <mxGeometry relative="1" as="geometry" />
        </mxCell>
        <mxCell id="geH2b-r0h5VM1KoDnd65-23" style="edgeStyle=orthogonalEdgeStyle;rounded=0;orthogonalLoop=1;jettySize=auto;html=1;entryX=1;entryY=0.5;entryDx=0;entryDy=0;" parent="1" source="geH2b-r0h5VM1KoDnd65-2" target="geH2b-r0h5VM1KoDnd65-16" edge="1">
          <mxGeometry relative="1" as="geometry" />
        </mxCell>
        <mxCell id="geH2b-r0h5VM1KoDnd65-24" style="edgeStyle=orthogonalEdgeStyle;rounded=0;orthogonalLoop=1;jettySize=auto;html=1;entryX=1;entryY=0.5;entryDx=0;entryDy=0;" parent="1" source="geH2b-r0h5VM1KoDnd65-2" target="geH2b-r0h5VM1KoDnd65-17" edge="1">
          <mxGeometry relative="1" as="geometry" />
        </mxCell>
        <mxCell id="geH2b-r0h5VM1KoDnd65-27" style="edgeStyle=orthogonalEdgeStyle;rounded=0;orthogonalLoop=1;jettySize=auto;html=1;entryX=1;entryY=0.5;entryDx=0;entryDy=0;" parent="1" source="geH2b-r0h5VM1KoDnd65-2" target="geH2b-r0h5VM1KoDnd65-18" edge="1">
          <mxGeometry relative="1" as="geometry" />
        </mxCell>
        <mxCell id="geH2b-r0h5VM1KoDnd65-2" value="Подсистема пользовательского интерфейса" style="rounded=0;whiteSpace=wrap;html=1;" parent="1" vertex="1">
          <mxGeometry x="280" y="140" width="120" height="60" as="geometry" />
        </mxCell>
        <mxCell id="geH2b-r0h5VM1KoDnd65-29" style="edgeStyle=orthogonalEdgeStyle;rounded=0;orthogonalLoop=1;jettySize=auto;html=1;entryX=1;entryY=0.5;entryDx=0;entryDy=0;" parent="1" source="geH2b-r0h5VM1KoDnd65-4" target="geH2b-r0h5VM1KoDnd65-30" edge="1">
          <mxGeometry relative="1" as="geometry">
            <mxPoint x="620" y="235" as="targetPoint" />
          </mxGeometry>
        </mxCell>
        <mxCell id="geH2b-r0h5VM1KoDnd65-32" style="edgeStyle=orthogonalEdgeStyle;rounded=0;orthogonalLoop=1;jettySize=auto;html=1;entryX=1;entryY=0.5;entryDx=0;entryDy=0;" parent="1" source="geH2b-r0h5VM1KoDnd65-4" target="geH2b-r0h5VM1KoDnd65-31" edge="1">
          <mxGeometry relative="1" as="geometry" />
        </mxCell>
        <mxCell id="geH2b-r0h5VM1KoDnd65-38" style="edgeStyle=orthogonalEdgeStyle;rounded=0;orthogonalLoop=1;jettySize=auto;html=1;entryX=1;entryY=0.5;entryDx=0;entryDy=0;" parent="1" source="geH2b-r0h5VM1KoDnd65-4" target="geH2b-r0h5VM1KoDnd65-33" edge="1">
          <mxGeometry relative="1" as="geometry" />
        </mxCell>
        <mxCell id="geH2b-r0h5VM1KoDnd65-39" style="edgeStyle=orthogonalEdgeStyle;rounded=0;orthogonalLoop=1;jettySize=auto;html=1;entryX=1;entryY=0.5;entryDx=0;entryDy=0;" parent="1" source="geH2b-r0h5VM1KoDnd65-4" target="geH2b-r0h5VM1KoDnd65-34" edge="1">
          <mxGeometry relative="1" as="geometry" />
        </mxCell>
        <mxCell id="geH2b-r0h5VM1KoDnd65-40" style="edgeStyle=orthogonalEdgeStyle;rounded=0;orthogonalLoop=1;jettySize=auto;html=1;entryX=1;entryY=0.5;entryDx=0;entryDy=0;" parent="1" source="geH2b-r0h5VM1KoDnd65-4" target="geH2b-r0h5VM1KoDnd65-35" edge="1">
          <mxGeometry relative="1" as="geometry" />
        </mxCell>
        <mxCell id="geH2b-r0h5VM1KoDnd65-41" style="edgeStyle=orthogonalEdgeStyle;rounded=0;orthogonalLoop=1;jettySize=auto;html=1;entryX=1;entryY=0.5;entryDx=0;entryDy=0;" parent="1" source="geH2b-r0h5VM1KoDnd65-4" target="geH2b-r0h5VM1KoDnd65-36" edge="1">
          <mxGeometry relative="1" as="geometry" />
        </mxCell>
        <mxCell id="geH2b-r0h5VM1KoDnd65-42" style="edgeStyle=orthogonalEdgeStyle;rounded=0;orthogonalLoop=1;jettySize=auto;html=1;entryX=1;entryY=0.5;entryDx=0;entryDy=0;" parent="1" source="geH2b-r0h5VM1KoDnd65-4" target="geH2b-r0h5VM1KoDnd65-37" edge="1">
          <mxGeometry relative="1" as="geometry" />
        </mxCell>
        <mxCell id="geH2b-r0h5VM1KoDnd65-4" value="Подсистема интерфейса администратора" style="rounded=0;whiteSpace=wrap;html=1;" parent="1" vertex="1">
          <mxGeometry x="580" y="140" width="120" height="60" as="geometry" />
        </mxCell>
        <mxCell id="geH2b-r0h5VM1KoDnd65-44" style="edgeStyle=orthogonalEdgeStyle;rounded=0;orthogonalLoop=1;jettySize=auto;html=1;entryDx=0;entryDy=0;entryX=1;entryY=0.5;" parent="1" source="geH2b-r0h5VM1KoDnd65-6" target="geH2b-r0h5VM1KoDnd65-43" edge="1">
          <mxGeometry relative="1" as="geometry" />
        </mxCell>
        <mxCell id="geH2b-r0h5VM1KoDnd65-46" style="edgeStyle=orthogonalEdgeStyle;rounded=0;orthogonalLoop=1;jettySize=auto;html=1;entryX=1;entryY=0.5;entryDx=0;entryDy=0;" parent="1" source="geH2b-r0h5VM1KoDnd65-6" target="geH2b-r0h5VM1KoDnd65-45" edge="1">
          <mxGeometry relative="1" as="geometry" />
        </mxCell>
        <mxCell id="geH2b-r0h5VM1KoDnd65-49" style="edgeStyle=orthogonalEdgeStyle;rounded=0;orthogonalLoop=1;jettySize=auto;html=1;entryDx=0;entryDy=0;" parent="1" source="geH2b-r0h5VM1KoDnd65-6" target="geH2b-r0h5VM1KoDnd65-48" edge="1">
          <mxGeometry relative="1" as="geometry">
            <Array as="points">
              <mxPoint x="949" y="385" />
            </Array>
          </mxGeometry>
        </mxCell>
        <mxCell id="geH2b-r0h5VM1KoDnd65-6" value="Подсистема серверной логики" style="rounded=0;whiteSpace=wrap;html=1;" parent="1" vertex="1">
          <mxGeometry x="889" y="140" width="120" height="60" as="geometry" />
        </mxCell>
        <mxCell id="geH2b-r0h5VM1KoDnd65-51" style="edgeStyle=orthogonalEdgeStyle;rounded=0;orthogonalLoop=1;jettySize=auto;html=1;entryX=1;entryY=0.5;entryDx=0;entryDy=0;" parent="1" source="geH2b-r0h5VM1KoDnd65-8" target="geH2b-r0h5VM1KoDnd65-50" edge="1">
          <mxGeometry relative="1" as="geometry">
            <Array as="points">
              <mxPoint x="1230" y="245" />
            </Array>
          </mxGeometry>
        </mxCell>
        <mxCell id="geH2b-r0h5VM1KoDnd65-53" style="edgeStyle=orthogonalEdgeStyle;rounded=0;orthogonalLoop=1;jettySize=auto;html=1;entryX=1;entryY=0.5;entryDx=0;entryDy=0;" parent="1" source="geH2b-r0h5VM1KoDnd65-8" target="geH2b-r0h5VM1KoDnd65-52" edge="1">
          <mxGeometry relative="1" as="geometry">
            <Array as="points">
              <mxPoint x="1230" y="295" />
            </Array>
          </mxGeometry>
        </mxCell>
        <mxCell id="geH2b-r0h5VM1KoDnd65-8" value="Подсистема баз данных" style="rounded=0;whiteSpace=wrap;html=1;" parent="1" vertex="1">
          <mxGeometry x="1169" y="140" width="120" height="60" as="geometry" />
        </mxCell>
        <mxCell id="geH2b-r0h5VM1KoDnd65-12" value="&lt;blockquote&gt;навигация по основным разделам сайта&lt;br&gt;&lt;/blockquote&gt;" style="text;html=1;strokeColor=none;fillColor=none;spacing=5;spacingTop=-20;whiteSpace=wrap;overflow=hidden;rounded=0;align=right;spacingLeft=-30;spacingRight=-30;" parent="1" vertex="1">
          <mxGeometry x="60" y="220" width="250" height="30" as="geometry" />
        </mxCell>
        <mxCell id="geH2b-r0h5VM1KoDnd65-13" value="&lt;blockquote&gt;интерфейс для просмотра информации о книгах&lt;br&gt;&lt;/blockquote&gt;" style="text;html=1;strokeColor=none;fillColor=none;spacing=5;spacingTop=-20;whiteSpace=wrap;overflow=hidden;rounded=0;align=right;spacingLeft=-30;spacingRight=-30;" parent="1" vertex="1">
          <mxGeometry x="60" y="260" width="250" height="30" as="geometry" />
        </mxCell>
        <mxCell id="geH2b-r0h5VM1KoDnd65-14" value="&lt;blockquote&gt;добавления книг в корзину и оформление заказа&lt;br&gt;&lt;/blockquote&gt;" style="text;html=1;strokeColor=none;fillColor=none;spacing=5;spacingTop=-20;whiteSpace=wrap;overflow=hidden;rounded=0;align=right;spacingLeft=-30;spacingRight=-30;" parent="1" vertex="1">
          <mxGeometry x="60" y="300" width="250" height="30" as="geometry" />
        </mxCell>
        <mxCell id="geH2b-r0h5VM1KoDnd65-15" value="&lt;blockquote&gt;интерфейса для просмотра информации о заказах&lt;br&gt;&lt;/blockquote&gt;" style="text;html=1;strokeColor=none;fillColor=none;spacing=5;spacingTop=-20;whiteSpace=wrap;overflow=hidden;rounded=0;align=right;spacingLeft=-30;spacingRight=-30;" parent="1" vertex="1">
          <mxGeometry x="60" y="340" width="250" height="30" as="geometry" />
        </mxCell>
        <mxCell id="geH2b-r0h5VM1KoDnd65-16" value="&lt;blockquote&gt;добавление книг в корзину и оформление заказа&lt;br&gt;&lt;/blockquote&gt;" style="text;html=1;strokeColor=none;fillColor=none;spacing=5;spacingTop=-20;whiteSpace=wrap;overflow=hidden;rounded=0;align=right;spacingLeft=-30;spacingRight=-30;" parent="1" vertex="1">
          <mxGeometry x="60" y="380" width="250" height="30" as="geometry" />
        </mxCell>
        <mxCell id="geH2b-r0h5VM1KoDnd65-17" value="&lt;blockquote&gt;коммуникация с пользователями системы&lt;br&gt;&lt;/blockquote&gt;" style="text;html=1;strokeColor=none;fillColor=none;spacing=5;spacingTop=-20;whiteSpace=wrap;overflow=hidden;rounded=0;align=right;spacingLeft=-30;spacingRight=-30;" parent="1" vertex="1">
          <mxGeometry x="60" y="420" width="250" height="30" as="geometry" />
        </mxCell>
        <mxCell id="geH2b-r0h5VM1KoDnd65-18" value="&lt;blockquote&gt;отображение информации о пользователе, возможность изменения информации, удаления учётной записи, и возможность выхода из учётной записи&lt;br&gt;&lt;/blockquote&gt;" style="text;html=1;strokeColor=none;fillColor=none;spacing=5;spacingTop=-20;whiteSpace=wrap;overflow=hidden;rounded=0;align=right;spacingLeft=-30;spacingRight=-30;" parent="1" vertex="1">
          <mxGeometry x="60" y="460" width="250" height="90" as="geometry" />
        </mxCell>
        <mxCell id="geH2b-r0h5VM1KoDnd65-30" value="&lt;blockquote&gt;навигация по основным разделам панели администратора&lt;br&gt;&lt;/blockquote&gt;" style="text;html=1;strokeColor=none;fillColor=none;spacing=5;spacingTop=-20;whiteSpace=wrap;overflow=hidden;rounded=0;align=right;spacingLeft=-30;spacingRight=-30;" parent="1" vertex="1">
          <mxGeometry x="360" y="220" width="250" height="30" as="geometry" />
        </mxCell>
        <mxCell id="geH2b-r0h5VM1KoDnd65-31" value="&lt;blockquote&gt;статистика по системе администратору&lt;br&gt;&lt;/blockquote&gt;" style="text;html=1;strokeColor=none;fillColor=none;spacing=5;spacingTop=-20;whiteSpace=wrap;overflow=hidden;rounded=0;align=right;spacingLeft=-30;spacingRight=-30;" parent="1" vertex="1">
          <mxGeometry x="360" y="260" width="250" height="20" as="geometry" />
        </mxCell>
        <mxCell id="geH2b-r0h5VM1KoDnd65-33" value="&lt;blockquote&gt;отслеживание, создание и обновление информации о выдачах книг&lt;br&gt;&lt;/blockquote&gt;" style="text;html=1;strokeColor=none;fillColor=none;spacing=5;spacingTop=-20;whiteSpace=wrap;overflow=hidden;rounded=0;align=right;spacingLeft=-30;spacingRight=-30;" parent="1" vertex="1">
          <mxGeometry x="360" y="290" width="250" height="30" as="geometry" />
        </mxCell>
        <mxCell id="geH2b-r0h5VM1KoDnd65-34" value="&lt;blockquote&gt;управление информацией о пользователях системы&lt;br&gt;&lt;/blockquote&gt;" style="text;html=1;strokeColor=none;fillColor=none;spacing=5;spacingTop=-20;whiteSpace=wrap;overflow=hidden;rounded=0;align=right;spacingLeft=-30;spacingRight=-30;" parent="1" vertex="1">
          <mxGeometry x="360" y="330" width="250" height="30" as="geometry" />
        </mxCell>
        <mxCell id="geH2b-r0h5VM1KoDnd65-35" value="&lt;blockquote&gt;создание и обновление каталога библиотечного фонда&lt;br&gt;&lt;/blockquote&gt;" style="text;html=1;strokeColor=none;fillColor=none;spacing=5;spacingTop=-20;whiteSpace=wrap;overflow=hidden;rounded=0;align=right;spacingLeft=-30;spacingRight=-30;" parent="1" vertex="1">
          <mxGeometry x="360" y="370" width="250" height="30" as="geometry" />
        </mxCell>
        <mxCell id="geH2b-r0h5VM1KoDnd65-36" value="&lt;blockquote&gt;коммуникация с пользователями системы&lt;br&gt;&lt;/blockquote&gt;" style="text;html=1;strokeColor=none;fillColor=none;spacing=5;spacingTop=-20;whiteSpace=wrap;overflow=hidden;rounded=0;align=right;spacingLeft=-30;spacingRight=-30;" parent="1" vertex="1">
          <mxGeometry x="360" y="410" width="250" height="30" as="geometry" />
        </mxCell>
        <mxCell id="geH2b-r0h5VM1KoDnd65-37" value="&lt;blockquote&gt;отображение информации об администраторе, возможность выхода из учётной записи&lt;br&gt;&lt;/blockquote&gt;" style="text;html=1;strokeColor=none;fillColor=none;spacing=5;spacingTop=-20;whiteSpace=wrap;overflow=hidden;rounded=0;align=right;spacingLeft=-30;spacingRight=-30;" parent="1" vertex="1">
          <mxGeometry x="360" y="450" width="250" height="50" as="geometry" />
        </mxCell>
        <mxCell id="geH2b-r0h5VM1KoDnd65-43" value="&lt;blockquote&gt;обработка запросов от пользовательского интерфейса и интерфейса администратора&lt;br&gt;&lt;/blockquote&gt;" style="text;html=1;strokeColor=none;fillColor=none;spacing=5;spacingTop=-20;whiteSpace=wrap;overflow=hidden;rounded=0;align=right;spacingLeft=-30;spacingRight=-30;" parent="1" vertex="1">
          <mxGeometry x="670" y="220" width="250" height="50" as="geometry" />
        </mxCell>
        <mxCell id="geH2b-r0h5VM1KoDnd65-45" value="&lt;blockquote&gt;управление базой данных для хранения информации о пользователях, книгах, заказах, выдачах, сообщениях&lt;br&gt;&lt;/blockquote&gt;" style="text;html=1;strokeColor=none;fillColor=none;spacing=5;spacingTop=-20;whiteSpace=wrap;overflow=hidden;rounded=0;align=right;spacingLeft=-30;spacingRight=-30;" parent="1" vertex="1">
          <mxGeometry x="670" y="280" width="250" height="60" as="geometry" />
        </mxCell>
        <mxCell id="geH2b-r0h5VM1KoDnd65-48" value="&lt;blockquote&gt;бизнес-логика, такая как бронирование книг, обработка заказов и т.д.&lt;br&gt;&lt;/blockquote&gt;" style="text;html=1;strokeColor=none;fillColor=none;spacing=5;spacingTop=-20;whiteSpace=wrap;overflow=hidden;rounded=0;align=right;spacingLeft=-30;spacingRight=-30;" parent="1" vertex="1">
          <mxGeometry x="670" y="370" width="250" height="30" as="geometry" />
        </mxCell>
        <mxCell id="geH2b-r0h5VM1KoDnd65-50" value="&lt;blockquote&gt;хранение информации о пользователях, книгах, заказах и других необходимых данных&lt;br&gt;&lt;/blockquote&gt;" style="text;html=1;strokeColor=none;fillColor=none;spacing=5;spacingTop=-20;whiteSpace=wrap;overflow=hidden;rounded=0;align=right;spacingLeft=-30;spacingRight=-30;" parent="1" vertex="1">
          <mxGeometry x="950" y="220" width="250" height="50" as="geometry" />
        </mxCell>
        <mxCell id="geH2b-r0h5VM1KoDnd65-52" value="&lt;blockquote&gt;доступа и анализа данных для администратора&lt;br&gt;&lt;/blockquote&gt;" style="text;html=1;strokeColor=none;fillColor=none;spacing=5;spacingTop=-20;whiteSpace=wrap;overflow=hidden;rounded=0;align=right;spacingLeft=-30;spacingRight=-30;" parent="1" vertex="1">
          <mxGeometry x="950" y="280" width="250" height="30" as="geometry" />
        </mxCell>
      </root>
    </mxGraphModel>
  </diagram>
</mxfile>
